<svg width="559" height="560" xmlns="http://www.w3.org/2000/svg" xmlns:xlink="http://www.w3.org/1999/xlink" xml:space="preserve" overflow="hidden"><g transform="translate(-311 -595)"><g><path d="M332.5 876.5C332.5 732.906 448.682 616.5 592 616.5 735.318 616.5 851.5 732.906 851.5 876.5 851.5 1020.09 735.318 1136.5 592 1136.5 448.682 1136.5 332.5 1020.09 332.5 876.5Z" stroke="#FFFFFF" stroke-width="36.6667" stroke-linecap="round" stroke-linejoin="round" stroke-miterlimit="10" stroke-opacity="1" fill="none" fill-rule="evenodd"/><path d="M472.619 848.436 600.064 720.991C616.76 704.295 641.174 701.64 654.594 715.06 668.014 728.48 665.358 752.893 648.663 769.589L521.217 897.034C504.522 913.73 480.108 916.385 466.688 902.965 453.268 889.545 455.923 865.132 472.619 848.436Z" stroke="#FFFFFF" stroke-width="6.875" stroke-linecap="round" stroke-linejoin="round" stroke-miterlimit="10" stroke-opacity="1" fill="#FFFFFF" fill-rule="evenodd" fill-opacity="1"/><path d="M599.561 1042.41 472.116 914.969C455.42 898.273 452.765 873.859 466.185 860.439 479.605 847.019 504.019 849.675 520.714 866.37L648.16 993.816C664.855 1010.51 667.511 1034.92 654.091 1048.34 640.671 1061.77 616.257 1059.11 599.561 1042.41Z" stroke="#FFFFFF" stroke-width="6.875" stroke-linecap="round" stroke-linejoin="round" stroke-miterlimit="10" stroke-opacity="1" fill="#FFFFFF" fill-rule="evenodd" fill-opacity="1"/></g></g></svg>