<svg width="564" height="564" xmlns="http://www.w3.org/2000/svg" xmlns:xlink="http://www.w3.org/1999/xlink" xml:space="preserve" overflow="hidden"><g transform="translate(-1379 -1874)"><g><path d="M1402.5 2156.5C1402.5 2012.91 1518.68 1896.5 1662 1896.5 1805.32 1896.5 1921.5 2012.91 1921.5 2156.5 1921.5 2300.09 1805.32 2416.5 1662 2416.5 1518.68 2416.5 1402.5 2300.09 1402.5 2156.5Z" stroke="#000000" stroke-width="36.6667" stroke-linecap="butt" stroke-linejoin="miter" stroke-miterlimit="8" stroke-opacity="1" fill="none" fill-rule="evenodd"/><path d="M1542.63 2128.14 1670.08 2000.69C1686.77 1983.99 1711.19 1981.34 1724.61 1994.76 1738.03 2008.18 1735.37 2032.59 1718.68 2049.29L1591.23 2176.73C1574.54 2193.43 1550.12 2196.08 1536.7 2182.66 1523.28 2169.24 1525.94 2144.83 1542.63 2128.14Z" stroke="#000000" stroke-width="4.58333" stroke-linecap="butt" stroke-linejoin="miter" stroke-miterlimit="8" stroke-opacity="1" fill="#000000" fill-rule="evenodd" fill-opacity="1"/><path d="M1669.58 2322.11 1542.13 2194.67C1525.43 2177.97 1522.78 2153.56 1536.2 2140.14 1549.62 2126.72 1574.03 2129.37 1590.73 2146.07L1718.17 2273.51C1734.87 2290.21 1737.53 2314.62 1724.11 2328.04 1710.69 2341.46 1686.27 2338.81 1669.58 2322.11Z" stroke="#000000" stroke-width="4.58333" stroke-linecap="butt" stroke-linejoin="miter" stroke-miterlimit="8" stroke-opacity="1" fill="#000000" fill-rule="evenodd" fill-opacity="1"/></g></g></svg>