<svg width="506" height="507" xmlns="http://www.w3.org/2000/svg" xmlns:xlink="http://www.w3.org/1999/xlink" xml:space="preserve" overflow="hidden"><defs><clipPath id="clip0"><rect x="112" y="513" width="506" height="507"/></clipPath><clipPath id="clip1"><rect x="112" y="513" width="506" height="507"/></clipPath><clipPath id="clip2"><rect x="112" y="514" width="506" height="505"/></clipPath><clipPath id="clip3"><rect x="112" y="514" width="506" height="506"/></clipPath></defs><g clip-path="url(#clip0)" transform="translate(-112 -513)"><g clip-path="url(#clip1)"><g clip-path="url(#clip2)"><g clip-path="url(#clip3)"><g><path d="M37.1916 0.283906C9.27425 0.283906 0 26.7818 0 37.3809 0 44.9517 0 252.487 0 252.487 0 252.487 0 450.653 0 467.687 0 484.816 11.2616 504.69 37.0024 504.69 62.7431 504.69 252.676 504.69 252.676 504.69 252.676 504.69 443.177 504.69 468.823 504.69 491.441 504.69 505.352 485.763 505.352 468.066 505.352 457.277 505.352 252.487 505.352 252.487 505.352 252.487 505.352 66.15 505.352 39.5575 505.352 12.965 488.223 0.283906 469.769 0.283906 461.82 0.283906 254.096 0.0946352 254.096 0.0946352 70.0301-0.0946352 40.1253 0.283906 37.1916 0.283906ZM124.351 70.6925C132.3 73.153 137.316 76.276 143.467 82.8058 149.429 89.0517 151.89 93.3103 154.255 101.449 156.432 108.736 155.77 120.281 152.931 127.758 143.846 151.322 116.307 162.583 93.8781 151.89 66.0554 138.735 59.9987 102.585 81.9541 81.197 93.2157 70.314 109.871 66.15 124.351 70.6925ZM364.535 184.917C368.793 185.674 375.891 187.567 380.339 189.176 407.31 198.923 421.695 219.081 428.508 256.745 430.59 267.818 430.59 269.9 430.59 349.488L430.59 430.874 393.209 430.874 355.828 430.874 355.261 357.059C354.787 289.868 354.598 282.77 353.084 277.565 350.434 268.764 346.838 262.234 342.39 258.07 336.239 252.392 330.939 250.405 320.151 249.837 299.047 248.796 286.082 255.326 278.701 270.941 272.644 283.906 272.644 283.716 272.076 360.844L271.603 430.874 234.222 430.874 196.841 430.874 196.557 309.93 196.368 189.081 232.803 189.081 269.237 189.081 269.237 205.832 269.237 222.677 271.792 218.891C284.568 199.775 305.577 186.526 327.627 183.498 335.576 182.362 354.125 183.119 364.535 184.917ZM149.808 309.93 149.524 430.874 112.143 430.874 74.7618 430.874 74.4779 309.93 74.2886 189.081 112.143 189.081 149.997 189.081 149.808 309.93Z" fill="#000000" fill-rule="nonzero" fill-opacity="1" transform="matrix(1.00003 0 0 1 112 514)"/><path d="M550.115 445.259C546.045 447.246 541.881 450.274 539.799 452.64 525.982 468.444 529.011 492.86 546.045 504.311 552.954 508.854 559.294 510.462 568.284 509.895 594.025 508.191 608.315 478.949 594.215 456.899 590.713 451.505 587.211 448.382 580.682 445.069 576.612 442.893 574.341 442.42 566.392 442.136 557.023 441.757 556.834 441.852 550.115 445.259ZM577.559 447.908C584.562 451.126 589.956 456.236 593.079 462.577 595.35 467.119 595.729 469.201 595.729 475.542 595.729 481.788 595.255 484.059 593.174 488.507 582.101 512.166 549.073 512.355 537.528 488.791 534.31 482.356 534.216 470.148 537.149 463.618 544.436 447.908 562.322 440.905 577.559 447.908Z" fill="#000000" fill-rule="nonzero" fill-opacity="1" transform="matrix(1.00003 0 0 1 112 514)"/><path d="M553.616 476.015 553.616 493.996 555.982 493.996C558.348 493.996 558.348 493.901 558.348 485.952L558.348 477.908 561.565 477.908C564.499 477.908 565.067 478.476 569.799 485.952 574.246 492.955 575.193 493.996 577.559 493.996 580.587 493.996 580.776 494.564 574.341 484.816L569.799 478.097 572.354 477.435C578.505 475.92 581.439 469.58 578.789 463.429 576.896 458.886 574.53 458.034 562.985 458.034L553.616 458.034 553.616 476.015ZM572.732 463.429C573.679 464.28 574.436 466.268 574.436 468.066 574.436 472.514 571.691 474.122 564.31 474.122L558.348 474.122 558.348 467.971 558.348 461.82 564.688 461.82C569.231 461.82 571.502 462.293 572.732 463.429Z" fill="#000000" fill-rule="nonzero" fill-opacity="1" transform="matrix(1.00003 0 0 1 112 514)"/></g></g></g></g></g></svg>