<svg width="506" height="506" xmlns="http://www.w3.org/2000/svg" xmlns:xlink="http://www.w3.org/1999/xlink" xml:space="preserve" overflow="hidden"><defs><clipPath id="clip0"><rect x="96" y="96" width="506" height="506"/></clipPath><clipPath id="clip1"><rect x="96" y="96" width="506" height="506"/></clipPath></defs><g clip-path="url(#clip0)" transform="translate(-96 -96)"><g clip-path="url(#clip1)"><path d="M37.2081 0.284032C9.27836 0.284032 0 26.7936 0 37.3975 0 44.9717 0 252.599 0 252.599 0 252.599 0 450.853 0 467.895 0 485.031 11.2666 504.913 37.0188 504.913 62.771 504.913 252.788 504.913 252.788 504.913 252.788 504.913 443.373 504.913 469.031 504.913 491.659 504.913 505.576 485.978 505.576 468.273 505.576 457.48 505.576 252.599 505.576 252.599 505.576 252.599 505.576 66.1793 505.576 39.5751 505.576 12.9708 488.44 0.284032 469.977 0.284032 462.025 0.284032 254.208 0.0946772 254.208 0.0946772 70.0611-0.0946772 40.1431 0.284032 37.2081 0.284032ZM124.406 70.7238C132.359 73.1855 137.377 76.3098 143.531 82.8425 149.495 89.0912 151.957 93.3517 154.324 101.494 156.501 108.784 155.839 120.335 152.998 127.814 143.909 151.389 116.358 162.655 93.9197 151.957 66.0847 138.797 60.0253 102.63 81.9904 81.233 93.257 70.3451 109.92 66.1793 124.406 70.7238ZM364.696 184.999C368.957 185.757 376.058 187.65 380.508 189.26 407.491 199.011 421.881 219.178 428.698 256.859 430.781 267.936 430.781 270.019 430.781 349.643L430.781 431.065 393.384 431.065 355.986 431.065 355.418 357.217C354.945 289.996 354.755 282.895 353.241 277.688 350.59 268.883 346.992 262.35 342.542 258.185 336.388 252.504 331.086 250.516 320.293 249.948 299.18 248.906 286.209 255.439 278.824 271.061 272.765 284.031 272.765 283.842 272.197 361.004L271.723 431.065 234.326 431.065 196.929 431.065 196.644 310.068 196.455 189.165 232.906 189.165 269.357 189.165 269.357 205.923 269.357 222.775 271.913 218.988C284.694 199.864 305.713 186.609 327.772 183.579 335.725 182.443 354.282 183.2 364.696 184.999ZM149.874 310.068 149.59 431.065 112.192 431.065 74.795 431.065 74.5109 310.068 74.3216 189.165 112.192 189.165 150.063 189.165 149.874 310.068Z" fill="#FFFFFF" fill-rule="nonzero" fill-opacity="1" transform="matrix(1 0 0 1.00155 96 96)"/><path d="M550.358 445.456C546.287 447.444 542.121 450.474 540.039 452.841 526.216 468.652 529.245 493.079 546.287 504.535 553.199 509.079 559.542 510.689 568.536 510.121 594.289 508.416 608.585 479.161 594.478 457.101 590.975 451.705 587.472 448.58 580.939 445.267 576.868 443.089 574.596 442.616 566.643 442.332 557.27 441.953 557.081 442.048 550.358 445.456ZM577.815 448.107C584.821 451.326 590.217 456.439 593.342 462.782 595.614 467.327 595.993 469.409 595.993 475.753 595.993 482.001 595.519 484.274 593.436 488.724 582.359 512.393 549.317 512.582 537.766 489.008 534.547 482.57 534.453 470.356 537.388 463.823 544.678 448.107 562.572 441.101 577.815 448.107Z" fill="#FFFFFF" fill-rule="nonzero" fill-opacity="1" transform="matrix(1 0 0 1.00155 96 96)"/><path d="M553.861 476.226 553.861 494.215 556.228 494.215C558.595 494.215 558.595 494.12 558.595 486.167L558.595 478.12 561.814 478.12C564.749 478.12 565.317 478.688 570.051 486.167 574.501 493.173 575.448 494.215 577.815 494.215 580.844 494.215 581.034 494.783 574.596 485.031L570.051 478.309 572.607 477.646C578.762 476.131 581.697 469.788 579.046 463.634 577.152 459.09 574.785 458.237 563.234 458.237L553.861 458.237 553.861 476.226ZM572.986 463.634C573.933 464.486 574.69 466.474 574.69 468.273 574.69 472.723 571.945 474.333 564.56 474.333L558.595 474.333 558.595 468.179 558.595 462.025 564.939 462.025C569.483 462.025 571.755 462.498 572.986 463.634Z" fill="#FFFFFF" fill-rule="nonzero" fill-opacity="1" transform="matrix(1 0 0 1.00155 96 96)"/></g></g></svg>