<svg width="506" height="506" xmlns="http://www.w3.org/2000/svg" xmlns:xlink="http://www.w3.org/1999/xlink" xml:space="preserve" overflow="hidden"><defs><clipPath id="clip0"><rect x="96" y="96" width="506" height="506"/></clipPath><clipPath id="clip1"><rect x="96" y="96" width="506" height="506"/></clipPath></defs><g clip-path="url(#clip0)" transform="translate(-96 -96)"><g clip-path="url(#clip1)"><path d="M37.2024 0.283988C9.27693 0.283988 0 26.7895 0 37.3917 0 44.9647 0 252.56 0 252.56 0 252.56 0 450.783 0 467.822 0 484.956 11.2648 504.835 37.0131 504.835 62.7613 504.835 252.749 504.835 252.749 504.835 252.749 504.835 443.305 504.835 468.958 504.835 491.583 504.835 505.498 485.903 505.498 468.201 505.498 457.409 505.498 252.56 505.498 252.56 505.498 252.56 505.498 66.1691 505.498 39.5689 505.498 12.9688 488.364 0.283988 469.905 0.283988 461.953 0.283988 254.169 0.0946625 254.169 0.0946625 70.0503-0.0946625 40.1369 0.283988 37.2024 0.283988ZM124.387 70.7129C132.338 73.1741 137.355 76.298 143.508 82.8297 149.472 89.0775 151.933 93.3373 154.3 101.478 156.477 108.767 155.815 120.316 152.975 127.794 143.887 151.365 116.34 162.63 93.9052 151.933 66.0745 138.775 60.0161 102.614 81.9778 81.2205 93.2426 70.3343 109.903 66.1691 124.387 70.7129ZM364.64 184.971C368.9 185.728 376 187.621 380.449 189.23 407.428 198.981 421.816 219.144 428.632 256.819 430.715 267.895 430.715 269.978 430.715 349.589L430.715 430.999 393.323 430.999 355.931 430.999 355.363 357.162C354.89 289.951 354.701 282.852 353.186 277.645 350.535 268.842 346.938 262.31 342.489 258.145 336.336 252.465 331.035 250.477 320.243 249.909 299.134 248.868 286.165 255.4 278.781 271.019 272.723 283.988 272.723 283.798 272.155 360.948L271.682 430.999 234.29 430.999 196.898 430.999 196.614 310.02 196.425 189.136 232.87 189.136 269.315 189.136 269.315 205.891 269.315 222.741 271.871 218.954C284.65 199.833 305.665 186.58 327.722 183.551 335.673 182.415 354.227 183.172 364.64 184.971ZM149.851 310.02 149.567 430.999 112.175 430.999 74.7834 430.999 74.4994 310.02 74.3101 189.136 112.175 189.136 150.04 189.136 149.851 310.02Z" fill="#2867B2" fill-rule="nonzero" fill-opacity="1" transform="matrix(1 0 0 1.00159 95.988 96)"/><path d="M550.273 445.387C546.203 447.375 542.038 450.404 539.955 452.771 526.134 468.58 529.164 493.003 546.203 504.457 553.113 509.001 559.456 510.61 568.449 510.042 594.197 508.338 608.491 479.087 594.386 457.031 590.884 451.635 587.381 448.511 580.849 445.198 576.779 443.021 574.507 442.547 566.555 442.263 557.184 441.885 556.994 441.979 550.273 445.387ZM577.726 448.038C584.731 451.256 590.126 456.368 593.25 462.711 595.522 467.254 595.901 469.337 595.901 475.679 595.901 481.927 595.427 484.199 593.345 488.648 582.269 512.314 549.232 512.503 537.683 488.932 534.465 482.495 534.37 470.284 537.305 463.752 544.594 448.038 562.485 441.033 577.726 448.038Z" fill="#2867B2" fill-rule="nonzero" fill-opacity="1" transform="matrix(1 0 0 1.00159 95.988 96)"/><path d="M553.776 476.153 553.776 494.138 556.142 494.138C558.509 494.138 558.509 494.044 558.509 486.092L558.509 478.046 561.728 478.046C564.662 478.046 565.23 478.614 569.963 486.092 574.412 493.097 575.359 494.138 577.726 494.138 580.755 494.138 580.944 494.706 574.507 484.956L569.963 478.235 572.519 477.573C578.672 476.058 581.607 469.716 578.956 463.562 577.063 459.019 574.696 458.167 563.148 458.167L553.776 458.167 553.776 476.153ZM572.898 463.562C573.844 464.414 574.602 466.402 574.602 468.201 574.602 472.65 571.856 474.259 564.473 474.259L558.509 474.259 558.509 468.106 558.509 461.953 564.851 461.953C569.395 461.953 571.667 462.427 572.898 463.562Z" fill="#2867B2" fill-rule="nonzero" fill-opacity="1" transform="matrix(1 0 0 1.00159 95.988 96)"/></g></g></svg>