<svg width="565" height="578" xmlns="http://www.w3.org/2000/svg" xmlns:xlink="http://www.w3.org/1999/xlink" xml:space="preserve" overflow="hidden"><g><g><path d="M1917.26 1904.2C1924.79 1904.2 1931.78 1905.39 1938.24 1907.78 1944.7 1910.18 1949.25 1913.99 1951.86 1919.24L1950.09 1949.33C1970.93 1955.46 1989.83 1958.51 2006.8 1958.51 2022.28 1958.51 2033.95 1956.82 2041.8 1953.44 2049.64 1950.04 2056.68 1944.57 2062.9 1937.03 2070.39 1937.03 2076.25 1938.85 2080.47 1942.51 2084.69 1946.17 2086.79 1950.7 2086.79 1956.13 2086.79 1970.1 2079.03 1979.87 2063.5 1985.42 2047.98 1990.97 2029.48 1993.74 2007.99 1993.74 1988.3 1993.74 1968.69 1990.56 1949.15 1984.19 1948.19 2013.58 1947.71 2053.39 1947.71 2103.58 1947.71 2145.65 1948.18 2184.68 1949.14 2220.64 1950.1 2256.6 1951.8 2283.35 1954.27 2300.9 1952.59 2308.39 1948.07 2314.39 1940.73 2318.9 1933.38 2323.4 1925.36 2325.64 1916.66 2325.64 1899.09 2325.64 1886.77 2318.82 1879.71 2305.16 1873.36 2292.88 1868.78 2265.33 1865.97 2222.54 1863.15 2179.73 1861.74 2131.92 1861.74 2079.1 1861.74 2024.64 1863.13 1985.85 1865.92 1962.7 1852.23 1959.92 1839.09 1958.51 1826.52 1958.51 1801.48 1958.51 1783.61 1963.59 1772.91 1973.76 1762.2 1983.92 1756.02 1993.67 1754.38 2003 1752.73 2012.33 1751.91 2023.96 1751.91 2037.87 1745.73 2042.68 1738.76 2045.07 1731.01 2045.07 1721.92 2045.07 1714.57 2041.67 1708.97 2034.86 1703.37 2028.04 1700.56 2019.31 1700.56 2008.66 1700.56 1996.09 1705.01 1983.14 1713.9 1969.8 1722.8 1956.46 1736.49 1945.38 1755 1936.55 1773.5 1927.72 1796.55 1923.3 1824.13 1923.3 1836.2 1923.3 1848.29 1924.19 1860.41 1925.98L1872.1 1928 1873.55 1925.04C1876.8 1919.22 1881.8 1914.57 1888.54 1911.12 1897.54 1906.5 1907.11 1904.2 1917.26 1904.2Z" fill="#5B9BD5" fill-rule="evenodd" fill-opacity="1" transform="matrix(1 0 0 1.00039 -1598.55 -1819.79)"/><path d="M1917.32 1905.2 1909.94 1905.61 1902.77 1906.88 1895.8 1909.01 1889.05 1911.98 1884.44 1914.71 1880.42 1917.93 1877.1 1921.52 1874.45 1925.48 1873 1928.44C1872.8 1928.84 1872.37 1929.06 1871.93 1928.99L1860.3 1926.97 1842.21 1924.97 1824.16 1924.3 1814.06 1924.5 1804.41 1925.12 1795.17 1926.15 1786.37 1927.59 1778.01 1929.44 1770.06 1931.69 1762.54 1934.36 1755.45 1937.44 1748.78 1940.83 1742.57 1944.43 1736.81 1948.23 1731.5 1952.24 1726.64 1956.45 1722.24 1960.88 1718.27 1965.5 1714.76 1970.33 1711.66 1975.27 1708.98 1980.16 1706.71 1985.01 1704.86 1989.81 1703.42 1994.57 1702.4 1999.29 1701.78 2003.98 1701.56 2008.59 1702.09 2016.14 1703.62 2022.89 1706.17 2028.91 1709.74 2034.22 1714.11 2038.53 1719.1 2041.61 1724.72 2043.45 1731.02 2044.07 1736.51 2043.63 1741.72 2042.33 1746.65 2040.15 1750.91 2037.33 1751.05 2027.82 1751.52 2018.63 1752.31 2010.29 1753.4 2002.77 1754.26 1999.15 1755.55 1995.49 1757.27 1991.83 1759.42 1988.12 1761.99 1984.4 1764.98 1980.63 1768.39 1976.84 1772.27 1972.99 1776.72 1969.33 1781.86 1966.18 1787.65 1963.52 1794.1 1961.35 1801.22 1959.67 1809 1958.47 1817.44 1957.75 1826.55 1957.51 1836.14 1957.78 1845.93 1958.57 1855.93 1959.89 1866.1 1961.72C1866.62 1961.81 1866.97 1962.29 1866.92 1962.81L1865.94 1972.2 1865.1 1983.05 1864.37 1995.38 1863.79 2009.19 1863.33 2024.46 1863 2041.21 1862.81 2059.42 1862.74 2079.1 1862.81 2098.66 1863.01 2117.76 1863.33 2136.39 1863.8 2154.54 1864.39 2172.23 1865.12 2189.44 1865.98 2206.19 1866.96 2222.46 1868.1 2237.78 1869.4 2251.65 1870.86 2264.1 1872.5 2275.11 1874.28 2284.68 1876.23 2292.79 1878.33 2299.44 1880.56 2304.65 1883.37 2309.32 1886.72 2313.43 1890.49 2316.85 1894.73 2319.64 1899.4 2321.8 1904.63 2323.38 1910.37 2324.32 1916.6 2324.64 1922.86 2324.24 1928.87 2323.02 1934.63 2320.96 1940.2 2318.04 1945.03 2314.49 1948.82 2310.42 1951.56 2305.82 1953.25 2300.8 1952.39 2293.99 1951.56 2286.1 1950.82 2277.34 1950.14 2267.74 1949.53 2257.26 1949 2245.92 1948.54 2233.72 1948.14 2220.66 1947.51 2193.11 1947.07 2164.41 1946.8 2134.57 1946.71 2103.58 1946.73 2085.24 1946.8 2067.87 1946.91 2051.48 1947.07 2036.07 1947.27 2021.63 1947.52 2008.16 1947.81 1995.67 1948.15 1984.16C1948.16 1983.85 1948.31 1983.56 1948.56 1983.37 1948.81 1983.19 1949.13 1983.13 1949.42 1983.22L1964.01 1987.38 1978.64 1990.36 1993.28 1992.14 2007.96 1992.74 2023.44 1992.22 2037.79 1990.68 2051.01 1988.1 2063.12 1984.5 2068.47 1982.27 2073.09 1979.67 2077.02 1976.65 2080.18 1973.31 2082.63 1969.6 2084.39 1965.51 2085.44 1961.02 2085.79 1956.14 2085.42 1952.43 2084.3 1949.08 2082.44 1946.02 2079.82 1943.27 2076.51 1941 2072.62 1939.35 2068.07 1938.36 2063.31 1938.06 2058.74 1943.05 2053.53 1947.62 2047.99 1951.39 2042.25 1954.33C2042.21 1954.35 2042.16 1954.37 2042.12 1954.39L2035.39 1956.64 2027.25 1958.24 2017.73 1959.21 2006.76 1959.52 1993.59 1958.94 1979.71 1957.2 1965.11 1954.32 1949.84 1950.3C1949.38 1950.18 1949.06 1949.75 1949.09 1949.27L1950.84 1919.5 1948.75 1916.2 1945.84 1913.21 1942.23 1910.72 1937.94 1908.74 1933.08 1907.19 1928.03 1906.09 1922.77 1905.42ZM1917.2 1903.2 1922.85 1903.42 1928.28 1904.1 1933.51 1905.24 1938.55 1906.83 1943.15 1908.94C1943.2 1908.97 1943.25 1909 1943.3 1909.03L1947.07 1911.62C1947.12 1911.66 1947.17 1911.7 1947.22 1911.75L1950.26 1914.88C1950.31 1914.93 1950.35 1914.99 1950.38 1915.04L1952.71 1918.7C1952.83 1918.88 1952.88 1919.09 1952.87 1919.3L1951.14 1948.57 1965.62 1952.39 1980.1 1955.24 1993.84 1956.95 2006.84 1957.51 2017.67 1957.2 2027.05 1956.25 2035 1954.68 2041.41 1952.51 2047.08 1949.61 2052.39 1945.96 2057.42 1941.55 2062.16 1936.35C2062.36 1936.13 2062.66 1936.01 2062.96 1936.03L2068.28 1936.37C2068.33 1936.37 2068.38 1936.38 2068.43 1936.39L2073.13 1937.42C2073.19 1937.43 2073.25 1937.45 2073.3 1937.47L2077.38 1939.18C2077.45 1939.21 2077.51 1939.24 2077.57 1939.28L2081.04 1941.68C2081.1 1941.72 2081.15 1941.77 2081.2 1941.82L2083.96 1944.72C2084.01 1944.77 2084.05 1944.83 2084.09 1944.89L2086.07 1948.13C2086.11 1948.2 2086.14 1948.27 2086.17 1948.34L2087.35 1951.9C2087.37 1951.97 2087.39 1952.05 2087.39 1952.12L2087.79 1956.03C2087.8 1956.09 2087.8 1956.14 2087.79 1956.2L2087.43 1961.25C2087.42 1961.3 2087.42 1961.35 2087.4 1961.4L2086.31 1966.06C2086.3 1966.11 2086.28 1966.17 2086.26 1966.22L2084.44 1970.47C2084.42 1970.52 2084.39 1970.57 2084.36 1970.62L2081.81 1974.49C2081.77 1974.54 2081.74 1974.58 2081.7 1974.62L2078.43 1978.09C2078.39 1978.13 2078.35 1978.17 2078.31 1978.2L2074.3 1981.26 2069.45 1984.02 2063.89 1986.34 2051.58 1990.01 2038.17 1992.64 2023.66 1994.21 2008.03 1994.74 1993.2 1994.14 1978.4 1992.35 1963.62 1989.34 1950.11 1985.5 1949.81 1995.72 1949.52 2008.21 1949.27 2021.67 1949.07 2036.1 1948.91 2051.5 1948.8 2067.89 1948.73 2085.25 1948.71 2103.58 1948.8 2134.56 1949.07 2164.39 1949.51 2193.08 1950.14 2220.61 1950.53 2233.66 1951 2245.84 1951.53 2257.16 1952.14 2267.62 1952.82 2277.2 1953.57 2285.93 1954.38 2293.78 1955.26 2300.77C1955.28 2300.92 1955.27 2301.07 1955.22 2301.21L1953.43 2306.56C1953.41 2306.63 1953.38 2306.69 1953.34 2306.75L1950.48 2311.54C1950.44 2311.6 1950.4 2311.65 1950.35 2311.7L1946.44 2315.92C1946.4 2315.97 1946.35 2316.01 1946.3 2316.05L1941.32 2319.7C1941.28 2319.73 1941.24 2319.76 1941.2 2319.78L1935.56 2322.74 1929.54 2324.9 1923.26 2326.2 1916.73 2326.64 1910.27 2326.32 1904.31 2325.35 1898.82 2323.72 1893.82 2321.43C1893.78 2321.41 1893.73 2321.38 1893.69 2321.36L1889.32 2318.48C1889.27 2318.45 1889.23 2318.42 1889.19 2318.38L1885.32 2314.86C1885.28 2314.83 1885.25 2314.79 1885.22 2314.75L1881.82 2310.6 1878.85 2305.68 1876.49 2300.24 1874.32 2293.39 1872.34 2285.14 1870.52 2275.48 1868.88 2264.39 1867.41 2251.89 1866.11 2237.96 1864.97 2222.61 1863.97 2206.31 1863.11 2189.54 1862.39 2172.31 1861.8 2154.61 1861.34 2136.44 1861.01 2117.8 1860.81 2098.69 1860.74 2079.11 1860.81 2059.41 1861 2041.19 1861.33 2024.42 1861.79 2009.13 1862.37 1995.3 1863.09 1982.93 1863.94 1972.04 1864.83 1963.52 1855.58 1961.86 1845.66 1960.56 1835.97 1959.78 1826.49 1959.52 1817.5 1959.76 1809.17 1960.47 1801.52 1961.65 1794.57 1963.3 1788.29 1965.42 1782.69 1968 1777.78 1971.03 1773.54 1974.53 1769.81 1978.26 1766.47 1981.97 1763.55 1985.64 1761.07 1989.25 1759.01 1992.83 1757.36 1996.35 1756.15 1999.81 1755.35 2003.23 1754.29 2010.58 1753.52 2018.81 1753.06 2027.92 1752.91 2037.89C1752.9 2038.22 1752.74 2038.53 1752.46 2038.71L1747.68 2041.86C1747.63 2041.89 1747.58 2041.92 1747.53 2041.94L1742.46 2044.19C1742.4 2044.21 1742.35 2044.23 1742.29 2044.25L1736.92 2045.59C1736.87 2045.61 1736.81 2045.62 1736.76 2045.62L1731.09 2046.07C1731.03 2046.07 1730.97 2046.07 1730.91 2046.07L1724.42 2045.43C1724.34 2045.42 1724.27 2045.41 1724.2 2045.38L1718.36 2043.47C1718.29 2043.45 1718.22 2043.41 1718.15 2043.37L1712.96 2040.18C1712.9 2040.13 1712.84 2040.09 1712.79 2040.03L1708.27 2035.57C1708.22 2035.52 1708.18 2035.47 1708.14 2035.41L1704.46 2029.94C1704.42 2029.89 1704.39 2029.83 1704.37 2029.77L1701.75 2023.59C1701.72 2023.53 1701.7 2023.48 1701.68 2023.42L1700.11 2016.51C1700.1 2016.46 1700.09 2016.41 1700.09 2016.36L1699.57 2008.73 1699.77 2003.89 1700.4 1999.03 1701.46 1994.15 1702.94 1989.23 1704.84 1984.29 1707.16 1979.31 1709.9 1974.31 1713.05 1969.27 1716.65 1964.31 1720.72 1959.57 1725.22 1955.04 1730.19 1950.73 1735.6 1946.64 1741.47 1942.76 1747.78 1939.09 1754.54 1935.66 1761.75 1932.52 1769.39 1929.81 1777.46 1927.51 1785.94 1925.63 1794.85 1924.17 1804.18 1923.13 1813.93 1922.51 1824.11 1922.3 1842.29 1922.97 1860.52 1924.99 1871.53 1926.88 1872.65 1924.6 1875.48 1920.33C1875.51 1920.29 1875.54 1920.25 1875.58 1920.21L1879 1916.51C1879.04 1916.48 1879.07 1916.44 1879.11 1916.41L1883.18 1913.15 1888.03 1910.26 1894.99 1907.17 1902.17 1904.97 1909.58 1903.64Z" fill="#5B9BD5" fill-rule="evenodd" fill-opacity="1" transform="matrix(1 0 0 1.00039 -1598.55 -1819.79)"/><path d="M1903.16 1890.1C1910.69 1890.1 1917.69 1891.3 1924.15 1893.69 1930.61 1896.09 1935.15 1899.9 1937.76 1905.14L1935.99 1935.23C1956.83 1941.36 1975.74 1944.42 1992.7 1944.42 2008.18 1944.42 2019.84 1942.72 2027.7 1939.33 2035.55 1935.95 2042.58 1930.48 2048.8 1922.93 2056.3 1922.93 2062.16 1924.75 2066.37 1928.41 2070.58 1932.06 2072.7 1936.6 2072.7 1942.03 2072.7 1956.01 2064.93 1965.78 2049.41 1971.32 2033.88 1976.86 2015.38 1979.64 1993.9 1979.64 1974.2 1979.64 1954.59 1976.45 1935.05 1970.08 1934.09 1999.49 1933.6 2039.28 1933.6 2089.47 1933.6 2131.56 1934.09 2170.57 1935.04 2206.54 1936 2242.51 1937.71 2269.26 1940.18 2286.8 1938.48 2294.3 1933.98 2300.3 1926.62 2304.8 1919.28 2309.29 1911.26 2311.55 1902.57 2311.55 1884.99 2311.55 1872.67 2304.72 1865.61 2291.07 1859.26 2278.78 1854.68 2251.24 1851.86 2208.43 1849.05 2165.64 1847.65 2117.82 1847.65 2065 1847.65 2010.55 1849.04 1971.75 1851.82 1948.61 1838.12 1945.81 1824.99 1944.42 1812.42 1944.42 1787.38 1944.42 1769.51 1949.5 1758.81 1959.66 1748.1 1969.82 1741.93 1979.57 1740.28 1988.9 1738.62 1998.24 1737.8 2009.86 1737.8 2023.78 1731.63 2028.58 1724.66 2030.98 1716.91 2030.98 1707.81 2030.98 1700.46 2027.56 1694.86 2020.75 1689.27 2013.94 1686.47 2005.21 1686.47 1994.56 1686.47 1981.99 1690.92 1969.04 1699.8 1955.7 1708.7 1942.37 1722.4 1931.28 1740.9 1922.45 1759.4 1913.61 1782.44 1909.2 1810.04 1909.2 1822.1 1909.2 1834.19 1910.1 1846.31 1911.88L1857.99 1913.89 1859.46 1910.94C1862.7 1905.12 1867.7 1900.47 1874.45 1897.02 1883.44 1892.4 1893.01 1890.1 1903.16 1890.1Z" stroke="#FFFFFF" stroke-width="2.0032" stroke-linecap="butt" stroke-linejoin="round" stroke-miterlimit="10" stroke-opacity="1" fill="#262626" fill-rule="evenodd" fill-opacity="1" transform="matrix(1 0 0 1.00039 -1598.55 -1819.79)"/><path d="M1621.59 1928.42C1621.59 1880.65 1660.3 1841.94 1708.07 1841.94L2053.95 1841.94C2101.7 1841.94 2140.42 1880.65 2140.42 1928.42L2140.42 2287.32C2140.42 2335.08 2101.7 2373.79 2053.95 2373.79L1708.07 2373.79C1660.3 2373.79 1621.59 2335.08 1621.59 2287.32Z" stroke="#4472C4" stroke-width="45.9065" stroke-linecap="butt" stroke-linejoin="miter" stroke-miterlimit="8" stroke-opacity="1" fill="none" fill-rule="evenodd" transform="matrix(1 0 0 1.00039 -1598.55 -1819.79)"/></g></g></svg>