<svg width="601" height="719" xmlns="http://www.w3.org/2000/svg" xmlns:xlink="http://www.w3.org/1999/xlink" xml:space="preserve" overflow="hidden"><g transform="translate(-1562 -1760)"><g><path d="M1914.19 1962.16C1921.71 1962.16 1928.7 1963.36 1935.15 1965.75 1941.6 1968.14 1946.13 1971.95 1948.74 1977.19L1946.97 2007.23C1967.78 2013.34 1986.66 2016.4 2003.59 2016.4 2019.05 2016.4 2030.69 2014.71 2038.53 2011.33 2046.37 2007.94 2053.39 2002.48 2059.6 1994.94 2067.09 1994.94 2072.93 1996.77 2077.14 2000.42 2081.35 2004.06 2083.46 2008.6 2083.46 2014.02 2083.46 2027.97 2075.71 2037.72 2060.2 2043.26 2044.7 2048.8 2026.23 2051.56 2004.79 2051.56 1985.12 2051.56 1965.54 2048.39 1946.03 2042.03 1945.07 2071.38 1944.59 2111.11 1944.59 2161.23 1944.59 2203.24 1945.07 2242.2 1946.02 2278.11 1946.98 2314.01 1948.69 2340.72 1951.15 2358.23 1949.46 2365.72 1944.96 2371.71 1937.62 2376.2 1930.29 2380.69 1922.28 2382.94 1913.6 2382.94 1896.05 2382.94 1883.75 2376.12 1876.7 2362.49 1870.36 2350.23 1865.79 2322.73 1862.98 2280 1860.17 2237.26 1858.77 2189.53 1858.77 2136.79 1858.77 2082.42 1860.16 2043.68 1862.94 2020.58 1849.26 2017.79 1836.15 2016.4 1823.6 2016.4 1798.6 2016.4 1780.76 2021.47 1770.07 2031.62 1759.38 2041.76 1753.21 2051.49 1751.57 2060.81 1749.92 2070.13 1749.1 2081.74 1749.1 2095.63 1742.94 2100.42 1735.98 2102.82 1728.24 2102.82 1719.16 2102.82 1711.82 2099.42 1706.23 2092.61 1700.64 2085.81 1697.85 2077.09 1697.85 2066.46 1697.85 2053.92 1702.28 2040.99 1711.16 2027.67 1720.04 2014.35 1733.72 2003.28 1752.19 1994.47 1770.66 1985.65 1793.67 1981.24 1821.22 1981.24 1833.26 1981.24 1845.33 1982.13 1857.43 1983.92L1869.1 1985.93 1870.56 1982.98C1873.8 1977.16 1878.79 1972.53 1885.53 1969.07 1894.51 1964.47 1904.06 1962.16 1914.19 1962.16Z" fill="#5B9BD5" fill-rule="evenodd" fill-opacity="1"/><path d="M1914.25 1963.16 1906.88 1963.58 1899.72 1964.85 1892.77 1966.97 1886.04 1969.93 1881.43 1972.67 1877.41 1975.88 1874.1 1979.46 1871.45 1983.42 1870 1986.37C1869.8 1986.77 1869.37 1986.99 1868.93 1986.91L1857.32 1984.91 1839.26 1982.91 1821.24 1982.24 1811.16 1982.44 1801.52 1983.06 1792.3 1984.08 1783.52 1985.52 1775.16 1987.37 1767.23 1989.62 1759.73 1992.28 1752.64 1995.36 1745.99 1998.74 1739.78 2002.34 1734.03 2006.13 1728.73 2010.14 1723.88 2014.34 1719.48 2018.75 1715.53 2023.37 1712.01 2028.2 1708.92 2033.12 1706.24 2038.01 1703.98 2042.85 1702.13 2047.64 1700.7 2052.4 1699.67 2057.11 1699.05 2061.79 1698.84 2066.4 1699.36 2073.93 1700.9 2080.66 1703.45 2086.67 1707.01 2091.97 1711.37 2096.29 1716.35 2099.36 1721.96 2101.2 1728.25 2101.82 1733.74 2101.38 1738.94 2100.07 1743.85 2097.9 1748.11 2095.09 1748.26 2085.59 1748.72 2076.41 1749.5 2068.09 1750.6 2060.58 1751.46 2056.97 1752.74 2053.32 1754.46 2049.65 1756.6 2045.96 1759.17 2042.23 1762.16 2038.48 1765.57 2034.69 1769.43 2030.84 1773.89 2027.2 1779.01 2024.05 1784.79 2021.4 1791.24 2019.23 1798.34 2017.55 1806.11 2016.36 1814.54 2015.64 1823.63 2015.4 1833.2 2015.67 1842.98 2016.45 1852.96 2017.77 1863.11 2019.6C1863.63 2019.69 1863.99 2020.16 1863.93 2020.69L1862.96 2030.06 1862.11 2040.9 1861.39 2053.21 1860.81 2066.99 1860.35 2082.24 1860.03 2098.96 1859.83 2117.14 1859.77 2136.79 1859.83 2156.32 1860.03 2175.39 1860.36 2193.98 1860.82 2212.11 1861.41 2229.77 1862.13 2246.96 1862.99 2263.68 1863.98 2279.92 1865.11 2295.21 1866.41 2309.07 1867.87 2321.5 1869.5 2332.49 1871.29 2342.03 1873.23 2350.14 1875.33 2356.78 1877.56 2361.97 1880.37 2366.65 1883.7 2370.75 1887.46 2374.16 1891.7 2376.95 1896.36 2379.11 1901.58 2380.68 1907.31 2381.62 1913.53 2381.94 1919.78 2381.54 1925.78 2380.31 1931.53 2378.27 1937.09 2375.35 1941.92 2371.8 1945.7 2367.74 1948.44 2363.15 1950.12 2358.13 1949.26 2351.34 1948.45 2343.46 1947.7 2334.72 1947.02 2325.12 1946.42 2314.67 1945.88 2303.35 1945.42 2291.17 1945.02 2278.13 1944.4 2250.62 1943.95 2221.97 1943.68 2192.17 1943.59 2161.23 1943.61 2142.92 1943.68 2125.58 1943.79 2109.22 1943.95 2093.83 1944.15 2079.41 1944.4 2065.97 1944.7 2053.49 1945.03 2042C1945.04 2041.69 1945.19 2041.4 1945.44 2041.22 1945.69 2041.04 1946.01 2040.98 1946.31 2041.07L1960.88 2045.22 1975.47 2048.19 1990.09 2049.97 2004.75 2050.57 2020.2 2050.05 2034.53 2048.51 2047.73 2045.93 2059.82 2042.34 2065.16 2040.11 2069.77 2037.52 2073.7 2034.51 2076.86 2031.17 2079.3 2027.47 2081.05 2023.38 2082.1 2018.9 2082.45 2014.03 2082.08 2010.33 2080.97 2006.97 2079.11 2003.93 2076.49 2001.18 2073.2 1998.9 2069.3 1997.27 2064.77 1996.28 2060.01 1995.97 2055.45 2000.96 2050.24 2005.52 2044.71 2009.29 2038.98 2012.22C2038.94 2012.24 2038.9 2012.26 2038.85 2012.27L2032.13 2014.53 2024.02 2016.13 2014.5 2017.08 2003.55 2017.4 1990.4 2016.82 1976.54 2015.09 1961.96 2012.21 1946.72 2008.19C1946.26 2008.07 1945.95 2007.64 1945.98 2007.17L1947.73 1977.45 1945.63 1974.15 1942.74 1971.17 1939.13 1968.68 1934.84 1966.7 1930 1965.16 1924.95 1964.05 1919.69 1963.39ZM1914.14 1961.17 1919.77 1961.39 1925.2 1962.07 1930.42 1963.2 1935.45 1964.8 1940.04 1966.9C1940.1 1966.92 1940.15 1966.95 1940.19 1966.99L1943.95 1969.58C1944.01 1969.62 1944.06 1969.66 1944.1 1969.7L1947.14 1972.83C1947.19 1972.88 1947.23 1972.93 1947.27 1972.99L1949.59 1976.65C1949.7 1976.83 1949.75 1977.04 1949.74 1977.24L1948.02 2006.47 1962.47 2010.27 1976.93 2013.13 1990.65 2014.84 2003.64 2015.4 2014.44 2015.08 2023.82 2014.14 2031.74 2012.56 2038.14 2010.4 2043.8 2007.51 2049.11 2003.87 2054.13 1999.46 2058.86 1994.27C2059.07 1994.05 2059.36 1993.93 2059.66 1993.95L2064.97 1994.29C2065.02 1994.29 2065.07 1994.3 2065.12 1994.31L2069.81 1995.34C2069.87 1995.35 2069.93 1995.37 2069.99 1995.39L2074.07 1997.1C2074.13 1997.13 2074.19 1997.16 2074.25 1997.2L2077.71 1999.59C2077.77 1999.63 2077.82 1999.68 2077.87 1999.73L2080.63 2002.63C2080.68 2002.68 2080.72 2002.74 2080.76 2002.8L2082.73 2006.03C2082.77 2006.1 2082.8 2006.16 2082.83 2006.24L2084.01 2009.8C2084.04 2009.87 2084.05 2009.94 2084.06 2010.02L2084.45 2013.92C2084.46 2013.97 2084.46 2014.03 2084.46 2014.09L2084.09 2019.12C2084.09 2019.18 2084.08 2019.23 2084.07 2019.28L2082.98 2023.92C2082.96 2023.98 2082.95 2024.03 2082.92 2024.09L2081.11 2028.34C2081.08 2028.39 2081.06 2028.44 2081.02 2028.49L2078.48 2032.35C2078.45 2032.39 2078.41 2032.44 2078.37 2032.48L2075.1 2035.94C2075.06 2035.98 2075.02 2036.01 2074.98 2036.05L2070.99 2039.11 2066.15 2041.85 2060.59 2044.18 2048.31 2047.85 2034.91 2050.47 2020.42 2052.04 2004.82 2052.56 1990.01 2051.97 1975.23 2050.17 1960.48 2047.18 1946.99 2043.34 1946.69 2053.55 1946.4 2066.01 1946.15 2079.45 1945.95 2093.86 1945.79 2109.24 1945.68 2125.6 1945.61 2142.93 1945.59 2161.23 1945.68 2192.16 1945.95 2221.95 1946.4 2250.59 1947.02 2278.08 1947.42 2291.11 1947.88 2303.27 1948.42 2314.57 1949.02 2325.01 1949.69 2334.58 1950.44 2343.29 1951.25 2351.13 1952.14 2358.11C1952.16 2358.26 1952.14 2358.41 1952.09 2358.55L1950.3 2363.89C1950.28 2363.96 1950.25 2364.02 1950.21 2364.08L1947.36 2368.85C1947.33 2368.92 1947.28 2368.97 1947.24 2369.02L1943.33 2373.23C1943.28 2373.28 1943.24 2373.32 1943.19 2373.36L1938.22 2377.01C1938.18 2377.04 1938.13 2377.07 1938.09 2377.09L1932.46 2380.04 1926.46 2382.2 1920.19 2383.5 1913.66 2383.94 1907.21 2383.62 1901.26 2382.65 1895.79 2381.02 1890.8 2378.74C1890.75 2378.72 1890.71 2378.69 1890.67 2378.66L1886.3 2375.79C1886.26 2375.76 1886.22 2375.73 1886.18 2375.69L1882.3 2372.18C1882.27 2372.14 1882.23 2372.11 1882.2 2372.07L1878.82 2367.91 1875.85 2363.01 1873.49 2357.57 1871.32 2350.74 1869.34 2342.5 1867.53 2332.85 1865.9 2321.79 1864.42 2309.31 1863.12 2295.4 1861.98 2280.07 1860.99 2263.8 1860.14 2247.06 1859.41 2229.85 1858.82 2212.18 1858.36 2194.03 1858.03 2175.42 1857.83 2156.34 1857.77 2136.8 1857.83 2117.13 1858.03 2098.93 1858.35 2082.2 1858.81 2066.93 1859.4 2053.12 1860.11 2040.78 1860.96 2029.9 1861.85 2021.4 1852.61 2019.74 1842.72 2018.44 1833.04 2017.66 1823.57 2017.4 1814.59 2017.64 1806.28 2018.35 1798.65 2019.53 1791.7 2021.18 1785.43 2023.29 1779.84 2025.87 1774.94 2028.9 1770.7 2032.39 1766.98 2036.11 1763.64 2039.82 1760.74 2043.48 1758.25 2047.09 1756.19 2050.66 1754.56 2054.17 1753.34 2057.63 1752.54 2061.04 1751.48 2068.37 1750.71 2076.6 1750.25 2085.69 1750.1 2095.65C1750.1 2095.98 1749.93 2096.28 1749.65 2096.47L1744.88 2099.61C1744.83 2099.64 1744.79 2099.67 1744.74 2099.69L1739.67 2101.94C1739.62 2101.96 1739.56 2101.98 1739.51 2101.99L1734.14 2103.34C1734.09 2103.35 1734.03 2103.36 1733.98 2103.37L1728.32 2103.82C1728.26 2103.82 1728.2 2103.82 1728.14 2103.82L1721.66 2103.18C1721.59 2103.17 1721.51 2103.16 1721.45 2103.13L1715.62 2101.22C1715.54 2101.19 1715.47 2101.16 1715.4 2101.12L1710.23 2097.93C1710.16 2097.89 1710.1 2097.84 1710.05 2097.79L1705.53 2093.33C1705.48 2093.28 1705.44 2093.23 1705.4 2093.17L1701.73 2087.71C1701.7 2087.66 1701.67 2087.6 1701.64 2087.54L1699.02 2081.36C1699 2081.31 1698.98 2081.25 1698.97 2081.2L1697.39 2074.3C1697.38 2074.25 1697.38 2074.2 1697.37 2074.15L1696.85 2066.53 1697.05 2061.7 1697.69 2056.85 1698.74 2051.97 1700.22 2047.07 1702.11 2042.13 1704.43 2037.16 1707.16 2032.16 1710.32 2027.14 1713.91 2022.19 1717.96 2017.45 1722.47 2012.93 1727.42 2008.62 1732.83 2004.54 1738.68 2000.67 1744.98 1997.01 1751.74 1993.57 1758.93 1990.45 1766.56 1987.74 1774.61 1985.44 1783.08 1983.57 1791.98 1982.11 1801.3 1981.07 1811.04 1980.45 1821.2 1980.24 1839.34 1980.91 1857.54 1982.92 1868.54 1984.82 1869.66 1982.53 1872.48 1978.28C1872.51 1978.24 1872.55 1978.2 1872.58 1978.16L1876 1974.46C1876.03 1974.43 1876.07 1974.39 1876.11 1974.36L1880.18 1971.11 1885.01 1968.22 1891.96 1965.14 1899.14 1962.94 1906.53 1961.61Z" fill="#5B9BD5" fill-rule="evenodd" fill-opacity="1"/><path d="M1900.12 1948.09C1907.64 1948.09 1914.62 1949.28 1921.07 1951.67 1927.52 1954.06 1932.05 1957.88 1934.67 1963.11L1932.9 1993.15C1953.71 1999.27 1972.58 2002.32 1989.52 2002.32 2004.97 2002.32 2016.61 2000.63 2024.45 1997.25 2032.29 1993.87 2039.31 1988.41 2045.52 1980.87 2053.01 1980.87 2058.86 1982.69 2063.07 1986.34 2067.28 1989.99 2069.38 1994.52 2069.38 1999.94 2069.38 2013.9 2061.63 2023.64 2046.13 2029.18 2030.63 2034.72 2012.15 2037.49 1990.71 2037.49 1971.05 2037.49 1951.46 2034.31 1931.96 2027.95 1930.99 2057.31 1930.51 2097.04 1930.51 2147.15 1930.51 2189.16 1930.99 2228.12 1931.95 2264.03 1932.9 2299.93 1934.61 2326.64 1937.07 2344.16 1935.39 2351.65 1930.88 2357.64 1923.55 2362.13 1916.22 2366.62 1908.21 2368.86 1899.52 2368.86 1881.98 2368.86 1869.68 2362.05 1862.63 2348.41 1856.29 2336.15 1851.71 2308.65 1848.9 2265.92 1846.09 2223.18 1844.69 2175.45 1844.69 2122.72 1844.69 2068.34 1846.08 2029.61 1848.86 2006.51 1835.18 2003.72 1822.07 2002.32 1809.53 2002.32 1784.52 2002.32 1766.68 2007.4 1755.99 2017.54 1745.3 2027.69 1739.14 2037.42 1737.49 2046.74 1735.85 2056.05 1735.03 2067.66 1735.03 2081.55 1728.86 2086.35 1721.91 2088.74 1714.17 2088.74 1705.08 2088.74 1697.75 2085.34 1692.16 2078.54 1686.56 2071.73 1683.77 2063.02 1683.77 2052.39 1683.77 2039.84 1688.21 2026.91 1697.09 2013.59 1705.96 2000.28 1719.64 1989.21 1738.11 1980.39 1756.59 1971.57 1779.59 1967.16 1807.14 1967.16 1819.18 1967.16 1831.25 1968.05 1843.35 1969.84L1855.03 1971.85 1856.48 1968.9C1859.72 1963.09 1864.71 1958.45 1871.45 1955 1880.43 1950.39 1889.99 1948.09 1900.12 1948.09Z" stroke="#FFFFFF" stroke-width="2" stroke-linecap="butt" stroke-linejoin="round" stroke-miterlimit="10" stroke-opacity="1" fill="#262626" fill-rule="evenodd" fill-opacity="1"/><text fill="#000000" fill-opacity="0" font-family="Arial,Arial_MSFontService,sans-serif" font-size="420.776" direction="ltr" writing-mode="lr-tb" x="1683.77" y="2316.27">T</text><path d="M1619 1939.34C1619 1891.65 1657.65 1853 1705.34 1853L2050.67 1853C2098.35 1853 2137 1891.65 2137 1939.34L2137 2297.66C2137 2345.35 2098.35 2384 2050.67 2384L1705.34 2384C1657.65 2384 1619 2345.35 1619 2297.66Z" stroke="#4472C4" stroke-width="45.8333" stroke-linecap="butt" stroke-linejoin="miter" stroke-miterlimit="8" stroke-opacity="1" fill="none" fill-rule="evenodd"/></g></g></svg>