<svg width="601" height="725" xmlns="http://www.w3.org/2000/svg" xmlns:xlink="http://www.w3.org/1999/xlink" xml:space="preserve" overflow="hidden"><g transform="translate(-1562 -1695)"><g><path d="M1914.2 1901.16C1921.72 1901.16 1928.7 1902.35 1935.15 1904.74 1941.6 1907.13 1946.14 1910.94 1948.75 1916.18L1946.98 1946.22C1967.79 1952.34 1986.66 1955.39 2003.6 1955.39 2019.05 1955.39 2030.7 1953.7 2038.54 1950.32 2046.37 1946.93 2053.4 1941.47 2059.61 1933.94 2067.09 1933.94 2072.94 1935.76 2077.15 1939.41 2081.36 1943.06 2083.46 1947.59 2083.46 1953.01 2083.46 1966.96 2075.71 1976.71 2060.21 1982.25 2044.71 1987.79 2026.24 1990.56 2004.79 1990.56 1985.13 1990.56 1965.55 1987.38 1946.04 1981.02 1945.08 2010.37 1944.6 2050.11 1944.6 2100.22 1944.6 2142.23 1945.07 2181.19 1946.03 2217.1 1946.99 2253 1948.69 2279.71 1951.15 2297.23 1949.47 2304.71 1944.96 2310.7 1937.63 2315.2 1930.3 2319.69 1922.29 2321.93 1913.6 2321.93 1896.06 2321.93 1883.76 2315.12 1876.71 2301.48 1870.37 2289.22 1865.8 2261.72 1862.99 2218.99 1860.18 2176.25 1858.77 2128.52 1858.77 2075.78 1858.77 2021.41 1860.16 1982.68 1862.94 1959.57 1849.27 1956.79 1836.16 1955.39 1823.61 1955.39 1798.61 1955.39 1780.76 1960.46 1770.08 1970.61 1759.39 1980.75 1753.22 1990.49 1751.58 1999.8 1749.93 2009.12 1749.11 2020.73 1749.11 2034.62 1742.94 2039.42 1735.99 2041.81 1728.25 2041.81 1719.17 2041.81 1711.83 2038.41 1706.24 2031.61 1700.65 2024.8 1697.85 2016.09 1697.85 2005.46 1697.85 1992.91 1702.29 1979.98 1711.17 1966.66 1720.05 1953.34 1733.72 1942.28 1752.2 1933.46 1770.67 1924.64 1793.68 1920.23 1821.22 1920.23 1833.27 1920.23 1845.34 1921.12 1857.44 1922.91L1869.11 1924.92 1870.56 1921.97C1873.81 1916.16 1878.8 1911.52 1885.53 1908.07 1894.51 1903.46 1904.07 1901.16 1914.2 1901.16Z" fill="#5B9BD5" fill-rule="evenodd" fill-opacity="1"/><path d="M1914.26 1902.16 1906.89 1902.57 1899.73 1903.84 1892.78 1905.96 1886.04 1908.93 1881.43 1911.66 1877.42 1914.87 1874.11 1918.45 1871.46 1922.41 1870.01 1925.36C1869.81 1925.76 1869.38 1925.98 1868.94 1925.91L1857.33 1923.9 1839.27 1921.9 1821.25 1921.23 1811.17 1921.43 1801.53 1922.05 1792.31 1923.08 1783.52 1924.51 1775.17 1926.36 1767.24 1928.61 1759.73 1931.27 1752.65 1934.35 1745.99 1937.73 1739.79 1941.33 1734.04 1945.12 1728.74 1949.13 1723.89 1953.33 1719.49 1957.75 1715.53 1962.36 1712.02 1967.19 1708.93 1972.12 1706.25 1977 1703.99 1981.84 1702.14 1986.64 1700.7 1991.39 1699.68 1996.1 1699.06 2000.78 1698.85 2005.39 1699.37 2012.92 1700.9 2019.66 1703.45 2025.67 1707.01 2030.97 1711.38 2035.28 1716.36 2038.35 1721.97 2040.19 1728.26 2040.81 1733.74 2040.37 1738.94 2039.07 1743.86 2036.89 1748.12 2034.08 1748.26 2024.58 1748.73 2015.41 1749.51 2007.08 1750.6 1999.57 1751.46 1995.96 1752.75 1992.31 1754.47 1988.65 1756.61 1984.95 1759.18 1981.23 1762.16 1977.47 1765.57 1973.69 1769.44 1969.84 1773.89 1966.19 1779.02 1963.04 1784.8 1960.39 1791.24 1958.22 1798.35 1956.54 1806.11 1955.35 1814.54 1954.63 1823.64 1954.39 1833.21 1954.66 1842.98 1955.45 1852.97 1956.76 1863.12 1958.59C1863.64 1958.68 1863.99 1959.16 1863.94 1959.68L1862.96 1969.05 1862.12 1979.89 1861.4 1992.2 1860.82 2005.98 1860.36 2021.23 1860.03 2037.95 1859.84 2056.13 1859.77 2075.78 1859.84 2095.31 1860.04 2114.38 1860.36 2132.98 1860.83 2151.1 1861.42 2168.76 1862.14 2185.95 1863 2202.67 1863.98 2218.91 1865.12 2234.21 1866.42 2248.06 1867.88 2260.49 1869.51 2271.48 1871.29 2281.03 1873.24 2289.13 1875.33 2295.77 1877.56 2300.97 1880.37 2305.64 1883.71 2309.74 1887.47 2313.15 1891.71 2315.94 1896.37 2318.1 1901.59 2319.67 1907.32 2320.61 1913.54 2320.93 1919.79 2320.53 1925.79 2319.31 1931.54 2317.26 1937.1 2314.34 1941.93 2310.8 1945.71 2306.73 1948.45 2302.14 1950.13 2297.13 1949.27 2290.33 1948.45 2282.45 1947.71 2273.71 1947.03 2264.12 1946.42 2253.66 1945.89 2242.34 1945.43 2230.16 1945.03 2217.12 1944.4 2189.61 1943.96 2160.96 1943.69 2131.16 1943.6 2100.22 1943.62 2081.91 1943.69 2064.57 1943.8 2048.21 1943.96 2032.82 1944.16 2018.4 1944.41 2004.96 1944.7 1992.49 1945.04 1980.99C1945.05 1980.68 1945.2 1980.4 1945.45 1980.21 1945.7 1980.03 1946.02 1979.97 1946.31 1980.06L1960.88 1984.21 1975.48 1987.18 1990.1 1988.96 2004.76 1989.56 2020.21 1989.04 2034.54 1987.5 2047.74 1984.93 2059.83 1981.33 2065.17 1979.11 2069.78 1976.51 2073.71 1973.5 2076.86 1970.16 2079.31 1966.46 2081.06 1962.37 2082.11 1957.89 2082.46 1953.02 2082.09 1949.32 2080.97 1945.97 2079.12 1942.92 2076.5 1940.17 2073.2 1937.9 2069.31 1936.26 2064.77 1935.27 2060.02 1934.97 2055.46 1939.95 2050.25 1944.51 2044.72 1948.28 2038.99 1951.21C2038.95 1951.23 2038.9 1951.25 2038.86 1951.27L2032.14 1953.52 2024.02 1955.12 2014.51 1956.08 2003.56 1956.39 1990.41 1955.81 1976.55 1954.08 1961.97 1951.2 1946.73 1947.19C1946.27 1947.07 1945.95 1946.64 1945.98 1946.16L1947.73 1916.44 1945.64 1913.14 1942.74 1910.16 1939.13 1907.67 1934.85 1905.69 1930 1904.15 1924.95 1903.05 1919.7 1902.38ZM1914.14 1900.16 1919.78 1900.38 1925.2 1901.06 1930.43 1902.2 1935.46 1903.79 1940.05 1905.89C1940.1 1905.92 1940.15 1905.95 1940.2 1905.98L1943.96 1908.57C1944.01 1908.61 1944.06 1908.65 1944.11 1908.7L1947.15 1911.82C1947.2 1911.87 1947.24 1911.93 1947.27 1911.98L1949.59 1915.64C1949.71 1915.82 1949.76 1916.03 1949.75 1916.24L1948.03 1945.46 1962.48 1949.27 1976.94 1952.12 1990.66 1953.83 2003.64 1954.39 2014.45 1954.08 2023.82 1953.13 2031.75 1951.56 2038.15 1949.39 2043.81 1946.5 2049.12 1942.86 2054.14 1938.45 2058.87 1933.26C2059.07 1933.04 2059.37 1932.92 2059.67 1932.94L2064.98 1933.28C2065.03 1933.28 2065.08 1933.29 2065.13 1933.3L2069.82 1934.33C2069.88 1934.34 2069.94 1934.36 2069.99 1934.38L2074.07 1936.09C2074.14 1936.12 2074.2 1936.15 2074.26 1936.19L2077.72 1938.58C2077.78 1938.62 2077.83 1938.67 2077.88 1938.72L2080.64 1941.62C2080.69 1941.67 2080.73 1941.73 2080.77 1941.79L2082.74 1945.02C2082.78 1945.09 2082.81 1945.16 2082.84 1945.23L2084.02 1948.79C2084.04 1948.86 2084.06 1948.94 2084.06 1949.01L2084.46 1952.91C2084.47 1952.97 2084.47 1953.02 2084.46 1953.08L2084.1 1958.12C2084.09 1958.17 2084.09 1958.22 2084.07 1958.27L2082.98 1962.92C2082.97 1962.97 2082.95 1963.03 2082.93 1963.08L2081.11 1967.33C2081.09 1967.38 2081.06 1967.43 2081.03 1967.48L2078.49 1971.34C2078.45 1971.39 2078.42 1971.43 2078.38 1971.47L2075.11 1974.93C2075.07 1974.97 2075.03 1975.01 2074.99 1975.04L2070.99 1978.1 2066.15 1980.85 2060.6 1983.17 2048.31 1986.84 2034.92 1989.46 2020.43 1991.03 2004.83 1991.56 1990.02 1990.96 1975.24 1989.17 1960.49 1986.17 1947 1982.33 1946.7 1992.54 1946.41 2005.01 1946.16 2018.44 1945.96 2032.85 1945.8 2048.23 1945.69 2064.59 1945.62 2081.92 1945.6 2100.22 1945.69 2131.15 1945.96 2160.94 1946.4 2189.58 1947.03 2217.07 1947.42 2230.1 1947.89 2242.26 1948.42 2253.56 1949.03 2264 1949.7 2273.57 1950.45 2282.28 1951.26 2290.12 1952.14 2297.1C1952.16 2297.25 1952.15 2297.4 1952.1 2297.54L1950.31 2302.88C1950.29 2302.95 1950.26 2303.01 1950.22 2303.07L1947.37 2307.85C1947.33 2307.91 1947.29 2307.96 1947.24 2308.01L1943.33 2312.23C1943.29 2312.27 1943.24 2312.31 1943.19 2312.35L1938.22 2316C1938.18 2316.03 1938.14 2316.06 1938.1 2316.08L1932.47 2319.03 1926.46 2321.19 1920.19 2322.49 1913.67 2322.93 1907.22 2322.61 1901.27 2321.64 1895.79 2320.01 1890.8 2317.73C1890.76 2317.71 1890.71 2317.68 1890.67 2317.66L1886.31 2314.78C1886.26 2314.75 1886.22 2314.72 1886.18 2314.68L1882.31 2311.17C1882.27 2311.14 1882.24 2311.1 1882.21 2311.06L1878.82 2306.91 1875.85 2302 1873.5 2296.57 1871.33 2289.73 1869.35 2281.49 1867.54 2271.85 1865.9 2260.78 1864.43 2248.3 1863.13 2234.39 1861.99 2219.06 1861 2202.79 1860.14 2186.05 1859.42 2168.84 1858.83 2151.17 1858.37 2133.03 1858.04 2114.42 1857.84 2095.34 1857.77 2075.79 1857.84 2056.12 1858.03 2037.93 1858.36 2021.19 1858.82 2005.92 1859.4 1992.12 1860.12 1979.77 1860.97 1968.89 1861.85 1960.39 1852.62 1958.73 1842.72 1957.43 1833.04 1956.65 1823.58 1956.39 1814.6 1956.63 1806.28 1957.34 1798.65 1958.52 1791.71 1960.17 1785.44 1962.28 1779.85 1964.86 1774.94 1967.89 1770.71 1971.38 1766.99 1975.1 1763.65 1978.81 1760.74 1982.47 1758.26 1986.08 1756.2 1989.65 1754.56 1993.16 1753.35 1996.62 1752.55 2000.03 1751.49 2007.37 1750.72 2015.59 1750.26 2024.68 1750.11 2034.64C1750.1 2034.97 1749.94 2035.28 1749.66 2035.46L1744.89 2038.6C1744.84 2038.63 1744.79 2038.66 1744.74 2038.68L1739.68 2040.93C1739.62 2040.95 1739.57 2040.97 1739.51 2040.99L1734.15 2042.33C1734.1 2042.35 1734.04 2042.36 1733.99 2042.36L1728.33 2042.81C1728.27 2042.81 1728.21 2042.81 1728.15 2042.81L1721.67 2042.17C1721.59 2042.16 1721.52 2042.15 1721.45 2042.12L1715.62 2040.21C1715.55 2040.19 1715.48 2040.15 1715.41 2040.11L1710.23 2036.92C1710.17 2036.88 1710.11 2036.84 1710.06 2036.78L1705.54 2032.32C1705.49 2032.27 1705.45 2032.22 1705.41 2032.16L1701.74 2026.7C1701.7 2026.65 1701.67 2026.59 1701.65 2026.53L1699.03 2020.36C1699.01 2020.3 1698.99 2020.25 1698.97 2020.19L1697.4 2013.29C1697.39 2013.24 1697.38 2013.19 1697.38 2013.14L1696.86 2005.53 1697.06 2000.69 1697.69 1995.84 1698.75 1990.97 1700.22 1986.06 1702.12 1981.12 1704.44 1976.15 1707.17 1971.16 1710.32 1966.13 1713.91 1961.18 1717.97 1956.44 1722.47 1951.92 1727.43 1947.62 1732.83 1943.53 1738.69 1939.66 1744.99 1936 1751.74 1932.57 1758.94 1929.44 1766.57 1926.73 1774.62 1924.43 1783.09 1922.56 1791.99 1921.1 1801.3 1920.06 1811.04 1919.44 1821.2 1919.23 1839.35 1919.9 1857.55 1921.92 1868.54 1923.81 1869.66 1921.53 1872.49 1917.27C1872.52 1917.23 1872.55 1917.19 1872.59 1917.15L1876 1913.45C1876.04 1913.42 1876.07 1913.38 1876.11 1913.35L1880.18 1910.1 1885.02 1907.21 1891.97 1904.13 1899.14 1901.93 1906.53 1900.6Z" fill="#5B9BD5" fill-rule="evenodd" fill-opacity="1"/><path d="M1900.12 1887.08C1907.64 1887.08 1914.63 1888.28 1921.08 1890.67 1927.53 1893.06 1932.06 1896.87 1934.67 1902.1L1932.9 1932.14C1953.71 1938.26 1972.59 1941.32 1989.52 1941.32 2004.98 1941.32 2016.62 1939.62 2024.46 1936.24 2032.3 1932.86 2039.32 1927.4 2045.53 1919.86 2053.02 1919.86 2058.87 1921.68 2063.07 1925.33 2067.28 1928.98 2069.39 1933.51 2069.39 1938.93 2069.39 1952.89 2061.64 1962.64 2046.14 1968.17 2030.63 1973.71 2012.16 1976.48 1990.72 1976.48 1971.05 1976.48 1951.47 1973.3 1931.96 1966.94 1931 1996.3 1930.52 2036.03 1930.52 2086.14 1930.52 2128.16 1931 2167.11 1931.95 2203.02 1932.91 2238.93 1934.62 2265.64 1937.08 2283.15 1935.39 2290.64 1930.89 2296.63 1923.55 2301.12 1916.22 2305.61 1908.21 2307.86 1899.53 2307.86 1881.98 2307.86 1869.68 2301.04 1862.63 2287.41 1856.29 2275.14 1851.72 2247.65 1848.91 2204.91 1846.1 2162.18 1844.7 2114.44 1844.7 2061.71 1844.7 2007.34 1846.09 1968.6 1848.87 1945.5 1835.19 1942.71 1822.08 1941.32 1809.53 1941.32 1784.53 1941.32 1766.69 1946.39 1756 1956.53 1745.31 1966.68 1739.15 1976.41 1737.5 1985.73 1735.85 1995.05 1735.03 2006.65 1735.03 2020.55 1728.87 2025.34 1721.91 2027.74 1714.17 2027.74 1705.09 2027.74 1697.75 2024.33 1692.16 2017.53 1686.57 2010.73 1683.78 2002.01 1683.78 1991.38 1683.78 1978.83 1688.22 1965.9 1697.09 1952.58 1705.97 1939.27 1719.65 1928.2 1738.12 1919.38 1756.59 1910.56 1779.6 1906.15 1807.15 1906.15 1819.19 1906.15 1831.26 1907.05 1843.36 1908.83L1855.03 1910.84 1856.49 1907.89C1859.73 1902.08 1864.72 1897.44 1871.46 1893.99 1880.44 1889.38 1889.99 1887.08 1900.12 1887.08Z" stroke="#FFFFFF" stroke-width="2" stroke-linecap="butt" stroke-linejoin="round" stroke-miterlimit="10" stroke-opacity="1" fill="#262626" fill-rule="evenodd" fill-opacity="1"/><text fill="#000000" fill-opacity="0" font-family="Arial,Arial_MSFontService,sans-serif" font-size="420.776" direction="ltr" writing-mode="lr-tb" x="1683.78" y="2255.26">T</text><path d="M1619 1925.34C1619 1877.65 1657.65 1839 1705.34 1839L2050.67 1839C2098.35 1839 2137 1877.65 2137 1925.34L2137 2283.67C2137 2331.35 2098.35 2370 2050.67 2370L1705.34 2370C1657.65 2370 1619 2331.35 1619 2283.67Z" stroke="#4472C4" stroke-width="45.8333" stroke-linecap="butt" stroke-linejoin="miter" stroke-miterlimit="8" stroke-opacity="1" fill="none" fill-rule="evenodd"/></g></g></svg>